<mxfile host="app.diagrams.net" modified="2024-05-06T16:11:43.980Z" agent="Mozilla/5.0 (Windows NT 10.0; Win64; x64) AppleWebKit/537.36 (KHTML, like Gecko) Chrome/124.0.0.0 Safari/537.36" etag="A2RV_LK3sb6jsaZZA4Cw" version="24.3.1" type="github">
  <diagram name="Page-1" id="0783ab3e-0a74-02c8-0abd-f7b4e66b4bec">
    <mxGraphModel dx="2441" dy="1287" grid="1" gridSize="10" guides="1" tooltips="1" connect="1" arrows="1" fold="1" page="0" pageScale="1" pageWidth="850" pageHeight="1100" background="none" math="0" shadow="0">
      <root>
        <mxCell id="0" />
        <mxCell id="1" parent="0" />
        <mxCell id="rZu1l6ArzL4Ls_2czEJb-1" value="Registered User Activity" style="swimlane;html=1;childLayout=stackLayout;startSize=20;rounded=0;shadow=0;comic=0;labelBackgroundColor=none;strokeWidth=1;fontFamily=Verdana;fontSize=12;align=center;" vertex="1" parent="1">
          <mxGeometry x="40" width="760" height="720" as="geometry" />
        </mxCell>
        <mxCell id="rZu1l6ArzL4Ls_2czEJb-15" value="User" style="swimlane;html=1;startSize=20;" vertex="1" parent="rZu1l6ArzL4Ls_2czEJb-1">
          <mxGeometry y="20" width="360" height="700" as="geometry" />
        </mxCell>
        <mxCell id="rZu1l6ArzL4Ls_2czEJb-131" style="edgeStyle=none;curved=1;rounded=0;orthogonalLoop=1;jettySize=auto;html=1;entryX=0.75;entryY=0;entryDx=0;entryDy=0;fontSize=12;startSize=8;endSize=8;" edge="1" parent="rZu1l6ArzL4Ls_2czEJb-15" source="rZu1l6ArzL4Ls_2czEJb-129" target="rZu1l6ArzL4Ls_2czEJb-130">
          <mxGeometry relative="1" as="geometry" />
        </mxCell>
        <mxCell id="rZu1l6ArzL4Ls_2czEJb-129" value="" style="ellipse;whiteSpace=wrap;html=1;rounded=0;shadow=0;comic=0;labelBackgroundColor=none;strokeWidth=1;fillColor=#000000;fontFamily=Verdana;fontSize=12;align=center;" vertex="1" parent="rZu1l6ArzL4Ls_2czEJb-15">
          <mxGeometry x="40" y="62.5" width="40" height="40" as="geometry" />
        </mxCell>
        <mxCell id="rZu1l6ArzL4Ls_2czEJb-134" style="edgeStyle=none;curved=1;rounded=0;orthogonalLoop=1;jettySize=auto;html=1;entryX=0;entryY=0.5;entryDx=0;entryDy=0;fontSize=12;startSize=8;endSize=8;exitX=0.913;exitY=0.947;exitDx=0;exitDy=0;exitPerimeter=0;" edge="1" parent="rZu1l6ArzL4Ls_2czEJb-15" source="rZu1l6ArzL4Ls_2czEJb-130" target="rZu1l6ArzL4Ls_2czEJb-132">
          <mxGeometry relative="1" as="geometry">
            <mxPoint x="110" y="120" as="sourcePoint" />
            <Array as="points" />
          </mxGeometry>
        </mxCell>
        <mxCell id="rZu1l6ArzL4Ls_2czEJb-160" style="edgeStyle=none;curved=0;rounded=1;orthogonalLoop=1;jettySize=auto;html=1;entryX=0;entryY=0.5;entryDx=0;entryDy=0;fontSize=12;startSize=8;endSize=8;exitX=0.75;exitY=1;exitDx=0;exitDy=0;" edge="1" parent="rZu1l6ArzL4Ls_2czEJb-15" source="rZu1l6ArzL4Ls_2czEJb-130" target="rZu1l6ArzL4Ls_2czEJb-159">
          <mxGeometry relative="1" as="geometry">
            <mxPoint x="60" y="250" as="sourcePoint" />
            <Array as="points">
              <mxPoint x="110" y="140" />
              <mxPoint x="110" y="361" />
            </Array>
          </mxGeometry>
        </mxCell>
        <mxCell id="rZu1l6ArzL4Ls_2czEJb-174" style="edgeStyle=none;curved=1;rounded=0;orthogonalLoop=1;jettySize=auto;html=1;fontSize=12;startSize=8;endSize=8;exitX=0.5;exitY=1;exitDx=0;exitDy=0;entryX=0;entryY=0.5;entryDx=0;entryDy=0;" edge="1" parent="rZu1l6ArzL4Ls_2czEJb-15" source="rZu1l6ArzL4Ls_2czEJb-130" target="rZu1l6ArzL4Ls_2czEJb-175">
          <mxGeometry relative="1" as="geometry">
            <mxPoint x="88" y="470" as="targetPoint" />
            <Array as="points">
              <mxPoint x="100" y="150" />
              <mxPoint x="90" y="435" />
            </Array>
          </mxGeometry>
        </mxCell>
        <mxCell id="rZu1l6ArzL4Ls_2czEJb-222" style="edgeStyle=none;curved=1;rounded=0;orthogonalLoop=1;jettySize=auto;html=1;fontSize=12;startSize=8;endSize=8;exitX=0.25;exitY=1;exitDx=0;exitDy=0;entryX=0;entryY=0.5;entryDx=0;entryDy=0;" edge="1" parent="rZu1l6ArzL4Ls_2czEJb-15" source="rZu1l6ArzL4Ls_2czEJb-130" target="rZu1l6ArzL4Ls_2czEJb-223">
          <mxGeometry relative="1" as="geometry">
            <mxPoint x="78" y="710" as="targetPoint" />
            <Array as="points">
              <mxPoint x="80" y="160" />
              <mxPoint x="60" y="650" />
            </Array>
          </mxGeometry>
        </mxCell>
        <mxCell id="rZu1l6ArzL4Ls_2czEJb-130" value="" style="rounded=0;whiteSpace=wrap;html=1;fillColor=#000000;rotation=-45;" vertex="1" parent="rZu1l6ArzL4Ls_2czEJb-15">
          <mxGeometry x="45" y="136.25" width="80" height="5" as="geometry" />
        </mxCell>
        <mxCell id="rZu1l6ArzL4Ls_2czEJb-132" value="View Personal Creator Page" style="html=1;align=center;verticalAlign=top;rounded=1;absoluteArcSize=1;arcSize=10;dashed=0;whiteSpace=wrap;fillColor=#dae8fc;strokeColor=#6c8ebf;" vertex="1" parent="rZu1l6ArzL4Ls_2czEJb-15">
          <mxGeometry x="160" y="108.75" width="180" height="27.5" as="geometry" />
        </mxCell>
        <mxCell id="rZu1l6ArzL4Ls_2czEJb-142" value="&lt;span style=&quot;font-size: 11px;&quot;&gt;Edit Personal User Info&lt;/span&gt;" style="html=1;align=center;verticalAlign=top;rounded=1;absoluteArcSize=1;arcSize=10;dashed=0;whiteSpace=wrap;fillColor=#dae8fc;strokeColor=#6c8ebf;" vertex="1" parent="rZu1l6ArzL4Ls_2czEJb-15">
          <mxGeometry x="180" y="226" width="140" height="30" as="geometry" />
        </mxCell>
        <mxCell id="rZu1l6ArzL4Ls_2czEJb-153" style="edgeStyle=none;curved=1;rounded=0;orthogonalLoop=1;jettySize=auto;html=1;fontSize=12;startSize=8;endSize=8;entryX=0.5;entryY=0;entryDx=0;entryDy=0;fillColor=#d5e8d4;strokeColor=#82b366;" edge="1" parent="rZu1l6ArzL4Ls_2czEJb-15" source="rZu1l6ArzL4Ls_2czEJb-157" target="rZu1l6ArzL4Ls_2czEJb-142">
          <mxGeometry relative="1" as="geometry">
            <mxPoint x="130" y="197" as="targetPoint" />
            <Array as="points" />
          </mxGeometry>
        </mxCell>
        <mxCell id="rZu1l6ArzL4Ls_2czEJb-154" value="yes" style="edgeLabel;html=1;align=center;verticalAlign=middle;resizable=0;points=[];fontSize=12;" vertex="1" connectable="0" parent="rZu1l6ArzL4Ls_2czEJb-153">
          <mxGeometry x="-0.2619" y="-1" relative="1" as="geometry">
            <mxPoint x="16" y="-5" as="offset" />
          </mxGeometry>
        </mxCell>
        <mxCell id="rZu1l6ArzL4Ls_2czEJb-155" style="edgeStyle=none;curved=0;rounded=1;orthogonalLoop=1;jettySize=auto;html=1;fontSize=12;startSize=8;endSize=8;fillColor=#f8cecc;strokeColor=#b85450;entryX=0.25;entryY=0;entryDx=0;entryDy=0;" edge="1" parent="rZu1l6ArzL4Ls_2czEJb-15" source="rZu1l6ArzL4Ls_2czEJb-157" target="rZu1l6ArzL4Ls_2czEJb-158">
          <mxGeometry relative="1" as="geometry">
            <mxPoint x="80" y="190" as="targetPoint" />
            <Array as="points">
              <mxPoint x="160" y="180" />
            </Array>
          </mxGeometry>
        </mxCell>
        <mxCell id="rZu1l6ArzL4Ls_2czEJb-156" value="no" style="edgeLabel;html=1;align=center;verticalAlign=middle;resizable=0;points=[];fontSize=12;" vertex="1" connectable="0" parent="rZu1l6ArzL4Ls_2czEJb-155">
          <mxGeometry x="-0.2358" y="-3" relative="1" as="geometry">
            <mxPoint x="67" y="12" as="offset" />
          </mxGeometry>
        </mxCell>
        <mxCell id="rZu1l6ArzL4Ls_2czEJb-157" value="Edit Personal Info?&#xa;&#xa;&#xa;&#xa;" style="rhombus;" vertex="1" parent="rZu1l6ArzL4Ls_2czEJb-15">
          <mxGeometry x="235" y="162" width="30" height="31" as="geometry" />
        </mxCell>
        <mxCell id="rZu1l6ArzL4Ls_2czEJb-220" style="edgeStyle=none;curved=1;rounded=0;orthogonalLoop=1;jettySize=auto;html=1;entryX=0.5;entryY=1;entryDx=0;entryDy=0;fontSize=12;startSize=8;endSize=8;" edge="1" parent="rZu1l6ArzL4Ls_2czEJb-15" source="rZu1l6ArzL4Ls_2czEJb-158" target="rZu1l6ArzL4Ls_2czEJb-221">
          <mxGeometry relative="1" as="geometry">
            <mxPoint x="310" y="305" as="targetPoint" />
          </mxGeometry>
        </mxCell>
        <mxCell id="rZu1l6ArzL4Ls_2czEJb-158" value="&lt;span style=&quot;font-size: 11px;&quot;&gt;Manage Uploaded Content&lt;/span&gt;" style="html=1;align=center;verticalAlign=top;rounded=1;absoluteArcSize=1;arcSize=10;dashed=0;whiteSpace=wrap;fillColor=#dae8fc;strokeColor=#6c8ebf;" vertex="1" parent="rZu1l6ArzL4Ls_2czEJb-15">
          <mxGeometry x="125" y="290" width="140" height="30" as="geometry" />
        </mxCell>
        <mxCell id="rZu1l6ArzL4Ls_2czEJb-159" value="&lt;span style=&quot;font-size: 11px;&quot;&gt;Uploaded New Content&lt;/span&gt;" style="html=1;align=center;verticalAlign=top;rounded=1;absoluteArcSize=1;arcSize=10;dashed=0;whiteSpace=wrap;fillColor=#dae8fc;strokeColor=#6c8ebf;" vertex="1" parent="rZu1l6ArzL4Ls_2czEJb-15">
          <mxGeometry x="125" y="346" width="140" height="30" as="geometry" />
        </mxCell>
        <mxCell id="rZu1l6ArzL4Ls_2czEJb-194" style="edgeStyle=none;curved=1;rounded=0;orthogonalLoop=1;jettySize=auto;html=1;fontSize=12;startSize=8;endSize=8;" edge="1" parent="rZu1l6ArzL4Ls_2czEJb-15" source="rZu1l6ArzL4Ls_2czEJb-175">
          <mxGeometry relative="1" as="geometry">
            <mxPoint x="390" y="435" as="targetPoint" />
          </mxGeometry>
        </mxCell>
        <mxCell id="rZu1l6ArzL4Ls_2czEJb-175" value="&lt;span style=&quot;font-size: 11px;&quot;&gt;Create Playlist&lt;/span&gt;" style="html=1;align=center;verticalAlign=top;rounded=1;absoluteArcSize=1;arcSize=10;dashed=0;whiteSpace=wrap;fillColor=#dae8fc;strokeColor=#6c8ebf;" vertex="1" parent="rZu1l6ArzL4Ls_2czEJb-15">
          <mxGeometry x="125" y="420" width="120" height="30" as="geometry" />
        </mxCell>
        <mxCell id="rZu1l6ArzL4Ls_2czEJb-202" style="edgeStyle=none;curved=1;rounded=0;orthogonalLoop=1;jettySize=auto;html=1;fontSize=12;startSize=8;endSize=8;entryX=0.5;entryY=0;entryDx=0;entryDy=0;" edge="1" parent="rZu1l6ArzL4Ls_2czEJb-15" source="rZu1l6ArzL4Ls_2czEJb-193" target="rZu1l6ArzL4Ls_2czEJb-204">
          <mxGeometry relative="1" as="geometry">
            <mxPoint x="220" y="520" as="targetPoint" />
          </mxGeometry>
        </mxCell>
        <mxCell id="rZu1l6ArzL4Ls_2czEJb-193" value="&lt;span style=&quot;font-size: 11px;&quot;&gt;Select Audios&lt;/span&gt;" style="html=1;align=center;verticalAlign=top;rounded=1;absoluteArcSize=1;arcSize=10;dashed=0;whiteSpace=wrap;fillColor=#dae8fc;strokeColor=#6c8ebf;" vertex="1" parent="rZu1l6ArzL4Ls_2czEJb-15">
          <mxGeometry x="160" y="460" width="120" height="30" as="geometry" />
        </mxCell>
        <mxCell id="rZu1l6ArzL4Ls_2czEJb-210" style="edgeStyle=none;curved=0;rounded=1;orthogonalLoop=1;jettySize=auto;html=1;fontSize=12;startSize=8;endSize=8;entryX=0;entryY=0.5;entryDx=0;entryDy=0;fillColor=#f8cecc;strokeColor=#b85450;" edge="1" parent="rZu1l6ArzL4Ls_2czEJb-15" source="rZu1l6ArzL4Ls_2czEJb-204" target="rZu1l6ArzL4Ls_2czEJb-212">
          <mxGeometry relative="1" as="geometry">
            <mxPoint x="280" y="580" as="targetPoint" />
            <Array as="points">
              <mxPoint x="220" y="575" />
            </Array>
          </mxGeometry>
        </mxCell>
        <mxCell id="rZu1l6ArzL4Ls_2czEJb-217" value="no" style="edgeLabel;html=1;align=center;verticalAlign=middle;resizable=0;points=[];fontSize=12;" vertex="1" connectable="0" parent="rZu1l6ArzL4Ls_2czEJb-210">
          <mxGeometry x="-0.128" relative="1" as="geometry">
            <mxPoint x="-4" y="-9" as="offset" />
          </mxGeometry>
        </mxCell>
        <mxCell id="rZu1l6ArzL4Ls_2czEJb-204" value="Submit?                         " style="rhombus;" vertex="1" parent="rZu1l6ArzL4Ls_2czEJb-15">
          <mxGeometry x="205" y="529" width="30" height="31" as="geometry" />
        </mxCell>
        <mxCell id="rZu1l6ArzL4Ls_2czEJb-212" value="" style="shape=sumEllipse;perimeter=ellipsePerimeter;html=1;backgroundOutline=1;" vertex="1" parent="rZu1l6ArzL4Ls_2czEJb-15">
          <mxGeometry x="280" y="560" width="30" height="30" as="geometry" />
        </mxCell>
        <mxCell id="rZu1l6ArzL4Ls_2czEJb-221" value="" style="rounded=0;whiteSpace=wrap;html=1;fillColor=#000000;rotation=0;direction=south;" vertex="1" parent="rZu1l6ArzL4Ls_2czEJb-15">
          <mxGeometry x="305" y="266" width="5" height="80" as="geometry" />
        </mxCell>
        <mxCell id="rZu1l6ArzL4Ls_2czEJb-223" value="&lt;span style=&quot;font-size: 11px;&quot;&gt;Sign Out&lt;/span&gt;" style="html=1;align=center;verticalAlign=top;rounded=1;absoluteArcSize=1;arcSize=10;dashed=0;whiteSpace=wrap;fillColor=#dae8fc;strokeColor=#6c8ebf;" vertex="1" parent="rZu1l6ArzL4Ls_2czEJb-15">
          <mxGeometry x="160" y="650" width="80" height="30" as="geometry" />
        </mxCell>
        <mxCell id="rZu1l6ArzL4Ls_2czEJb-225" value="" style="ellipse;html=1;shape=endState;fillColor=strokeColor;" vertex="1" parent="rZu1l6ArzL4Ls_2czEJb-15">
          <mxGeometry x="280" y="650" width="30" height="30" as="geometry" />
        </mxCell>
        <mxCell id="rZu1l6ArzL4Ls_2czEJb-224" style="edgeStyle=none;curved=1;rounded=0;orthogonalLoop=1;jettySize=auto;html=1;fontSize=12;startSize=8;endSize=8;" edge="1" parent="rZu1l6ArzL4Ls_2czEJb-15" source="rZu1l6ArzL4Ls_2czEJb-223" target="rZu1l6ArzL4Ls_2czEJb-225">
          <mxGeometry relative="1" as="geometry">
            <mxPoint x="270" y="665" as="targetPoint" />
          </mxGeometry>
        </mxCell>
        <mxCell id="rZu1l6ArzL4Ls_2czEJb-43" value="Client" style="swimlane;html=1;startSize=20;" vertex="1" parent="rZu1l6ArzL4Ls_2czEJb-1">
          <mxGeometry x="360" y="20" width="200" height="700" as="geometry" />
        </mxCell>
        <mxCell id="rZu1l6ArzL4Ls_2czEJb-136" value="&lt;span style=&quot;font-size: 11px;&quot;&gt;Fetch Personal User Info&lt;/span&gt;" style="html=1;align=center;verticalAlign=top;rounded=1;absoluteArcSize=1;arcSize=10;dashed=0;whiteSpace=wrap;fillColor=#dae8fc;strokeColor=#6c8ebf;" vertex="1" parent="rZu1l6ArzL4Ls_2czEJb-43">
          <mxGeometry x="30" y="109" width="130" height="30" as="geometry" />
        </mxCell>
        <mxCell id="rZu1l6ArzL4Ls_2czEJb-140" value="&lt;span style=&quot;font-size: 11px;&quot;&gt;Display User Profile&lt;/span&gt;" style="html=1;align=center;verticalAlign=top;rounded=1;absoluteArcSize=1;arcSize=10;dashed=0;whiteSpace=wrap;fillColor=#dae8fc;strokeColor=#6c8ebf;" vertex="1" parent="rZu1l6ArzL4Ls_2czEJb-43">
          <mxGeometry x="30" y="163" width="140" height="30" as="geometry" />
        </mxCell>
        <mxCell id="rZu1l6ArzL4Ls_2czEJb-145" value="&lt;span style=&quot;font-size: 11px;&quot;&gt;Update Personal User Info&lt;/span&gt;" style="html=1;align=center;verticalAlign=top;rounded=1;absoluteArcSize=1;arcSize=10;dashed=0;whiteSpace=wrap;fillColor=#dae8fc;strokeColor=#6c8ebf;" vertex="1" parent="rZu1l6ArzL4Ls_2czEJb-43">
          <mxGeometry x="30" y="226" width="140" height="30" as="geometry" />
        </mxCell>
        <mxCell id="rZu1l6ArzL4Ls_2czEJb-165" value="&lt;span style=&quot;font-size: 11px;&quot;&gt;Update Audio Info&lt;/span&gt;" style="html=1;align=center;verticalAlign=top;rounded=1;absoluteArcSize=1;arcSize=10;dashed=0;whiteSpace=wrap;fillColor=#dae8fc;strokeColor=#6c8ebf;" vertex="1" parent="rZu1l6ArzL4Ls_2czEJb-43">
          <mxGeometry x="30" y="290" width="140" height="30" as="geometry" />
        </mxCell>
        <mxCell id="rZu1l6ArzL4Ls_2czEJb-169" value="&lt;span style=&quot;font-size: 11px;&quot;&gt;Upload Audio File&amp;nbsp;&lt;/span&gt;" style="html=1;align=center;verticalAlign=top;rounded=1;absoluteArcSize=1;arcSize=10;dashed=0;whiteSpace=wrap;fillColor=#dae8fc;strokeColor=#6c8ebf;" vertex="1" parent="rZu1l6ArzL4Ls_2czEJb-43">
          <mxGeometry x="30" y="346" width="140" height="30" as="geometry" />
        </mxCell>
        <mxCell id="rZu1l6ArzL4Ls_2czEJb-195" value="&lt;span style=&quot;font-size: 11px;&quot;&gt;Fetch Audio List&lt;/span&gt;" style="html=1;align=center;verticalAlign=top;rounded=1;absoluteArcSize=1;arcSize=10;dashed=0;whiteSpace=wrap;fillColor=#dae8fc;strokeColor=#6c8ebf;" vertex="1" parent="rZu1l6ArzL4Ls_2czEJb-43">
          <mxGeometry x="30" y="415" width="140" height="30" as="geometry" />
        </mxCell>
        <mxCell id="rZu1l6ArzL4Ls_2czEJb-199" value="&lt;span style=&quot;font-size: 11px;&quot;&gt;Display Audio List&lt;/span&gt;" style="html=1;align=center;verticalAlign=top;rounded=1;absoluteArcSize=1;arcSize=10;dashed=0;whiteSpace=wrap;fillColor=#dae8fc;strokeColor=#6c8ebf;" vertex="1" parent="rZu1l6ArzL4Ls_2czEJb-43">
          <mxGeometry x="40" y="460" width="120" height="30" as="geometry" />
        </mxCell>
        <mxCell id="rZu1l6ArzL4Ls_2czEJb-205" value="&lt;span style=&quot;font-size: 11px;&quot;&gt;Add Playlist&lt;/span&gt;" style="html=1;align=center;verticalAlign=top;rounded=1;absoluteArcSize=1;arcSize=10;dashed=0;whiteSpace=wrap;fillColor=#dae8fc;strokeColor=#6c8ebf;" vertex="1" parent="rZu1l6ArzL4Ls_2czEJb-43">
          <mxGeometry x="40" y="523" width="120" height="30" as="geometry" />
        </mxCell>
        <mxCell id="rZu1l6ArzL4Ls_2czEJb-51" value="API Interface" style="swimlane;html=1;startSize=20;" vertex="1" parent="rZu1l6ArzL4Ls_2czEJb-1">
          <mxGeometry x="560" y="20" width="200" height="700" as="geometry" />
        </mxCell>
        <mxCell id="rZu1l6ArzL4Ls_2czEJb-135" value="&lt;font style=&quot;font-size: 11px;&quot;&gt;Backend Activity&lt;/font&gt;" style="html=1;shape=mxgraph.infographic.ribbonSimple;notch1=0;notch2=20;align=center;verticalAlign=middle;fontSize=14;fontStyle=0;fillColor=#FFFFFF;whiteSpace=wrap;" vertex="1" parent="rZu1l6ArzL4Ls_2czEJb-51">
          <mxGeometry x="25" y="104" width="150" height="40" as="geometry" />
        </mxCell>
        <mxCell id="rZu1l6ArzL4Ls_2czEJb-143" value="&lt;font style=&quot;font-size: 11px;&quot;&gt;Backend Activity&lt;/font&gt;" style="html=1;shape=mxgraph.infographic.ribbonSimple;notch1=0;notch2=20;align=center;verticalAlign=middle;fontSize=14;fontStyle=0;fillColor=#FFFFFF;whiteSpace=wrap;" vertex="1" parent="rZu1l6ArzL4Ls_2czEJb-51">
          <mxGeometry x="25" y="221" width="150" height="40" as="geometry" />
        </mxCell>
        <mxCell id="rZu1l6ArzL4Ls_2czEJb-167" value="&lt;font style=&quot;font-size: 11px;&quot;&gt;Backend Activity&lt;/font&gt;" style="html=1;shape=mxgraph.infographic.ribbonSimple;notch1=0;notch2=20;align=center;verticalAlign=middle;fontSize=14;fontStyle=0;fillColor=#FFFFFF;whiteSpace=wrap;" vertex="1" parent="rZu1l6ArzL4Ls_2czEJb-51">
          <mxGeometry x="25" y="285" width="150" height="40" as="geometry" />
        </mxCell>
        <mxCell id="rZu1l6ArzL4Ls_2czEJb-170" value="&lt;font style=&quot;font-size: 11px;&quot;&gt;Backend Activity&lt;/font&gt;" style="html=1;shape=mxgraph.infographic.ribbonSimple;notch1=0;notch2=20;align=center;verticalAlign=middle;fontSize=14;fontStyle=0;fillColor=#FFFFFF;whiteSpace=wrap;" vertex="1" parent="rZu1l6ArzL4Ls_2czEJb-51">
          <mxGeometry x="25" y="341" width="150" height="40" as="geometry" />
        </mxCell>
        <mxCell id="rZu1l6ArzL4Ls_2czEJb-196" value="&lt;font style=&quot;font-size: 11px;&quot;&gt;Backend Activity&lt;/font&gt;" style="html=1;shape=mxgraph.infographic.ribbonSimple;notch1=0;notch2=20;align=center;verticalAlign=middle;fontSize=14;fontStyle=0;fillColor=#FFFFFF;whiteSpace=wrap;" vertex="1" parent="rZu1l6ArzL4Ls_2czEJb-51">
          <mxGeometry x="25" y="410" width="150" height="40" as="geometry" />
        </mxCell>
        <mxCell id="rZu1l6ArzL4Ls_2czEJb-206" value="&lt;font style=&quot;font-size: 11px;&quot;&gt;Backend Activity&lt;/font&gt;" style="html=1;shape=mxgraph.infographic.ribbonSimple;notch1=0;notch2=20;align=center;verticalAlign=middle;fontSize=14;fontStyle=0;fillColor=#FFFFFF;whiteSpace=wrap;" vertex="1" parent="rZu1l6ArzL4Ls_2czEJb-51">
          <mxGeometry x="25" y="515" width="150" height="40" as="geometry" />
        </mxCell>
        <mxCell id="rZu1l6ArzL4Ls_2czEJb-137" style="edgeStyle=none;curved=1;rounded=0;orthogonalLoop=1;jettySize=auto;html=1;entryX=0;entryY=0.5;entryDx=0;entryDy=0;fontSize=12;startSize=8;endSize=8;" edge="1" parent="rZu1l6ArzL4Ls_2czEJb-1" source="rZu1l6ArzL4Ls_2czEJb-132" target="rZu1l6ArzL4Ls_2czEJb-136">
          <mxGeometry relative="1" as="geometry" />
        </mxCell>
        <mxCell id="rZu1l6ArzL4Ls_2czEJb-138" style="edgeStyle=none;curved=1;rounded=0;orthogonalLoop=1;jettySize=auto;html=1;entryX=0;entryY=0;entryDx=0;entryDy=20;entryPerimeter=0;fontSize=12;startSize=8;endSize=8;" edge="1" parent="rZu1l6ArzL4Ls_2czEJb-1" source="rZu1l6ArzL4Ls_2czEJb-136" target="rZu1l6ArzL4Ls_2czEJb-135">
          <mxGeometry relative="1" as="geometry" />
        </mxCell>
        <mxCell id="rZu1l6ArzL4Ls_2czEJb-141" style="edgeStyle=none;curved=0;rounded=1;orthogonalLoop=1;jettySize=auto;html=1;entryX=1;entryY=0.5;entryDx=0;entryDy=0;fontSize=12;startSize=8;endSize=8;exitX=1;exitY=0.5;exitDx=0;exitDy=0;exitPerimeter=0;" edge="1" parent="rZu1l6ArzL4Ls_2czEJb-1" source="rZu1l6ArzL4Ls_2czEJb-135" target="rZu1l6ArzL4Ls_2czEJb-140">
          <mxGeometry relative="1" as="geometry">
            <Array as="points">
              <mxPoint x="750" y="144" />
              <mxPoint x="750" y="180" />
            </Array>
          </mxGeometry>
        </mxCell>
        <mxCell id="rZu1l6ArzL4Ls_2czEJb-146" style="edgeStyle=none;curved=1;rounded=0;orthogonalLoop=1;jettySize=auto;html=1;entryX=0;entryY=0;entryDx=0;entryDy=20;entryPerimeter=0;fontSize=12;startSize=8;endSize=8;" edge="1" parent="rZu1l6ArzL4Ls_2czEJb-1" source="rZu1l6ArzL4Ls_2czEJb-145" target="rZu1l6ArzL4Ls_2czEJb-143">
          <mxGeometry relative="1" as="geometry" />
        </mxCell>
        <mxCell id="rZu1l6ArzL4Ls_2czEJb-144" style="edgeStyle=none;curved=0;rounded=1;orthogonalLoop=1;jettySize=auto;html=1;fontSize=12;startSize=8;endSize=8;entryX=0;entryY=0.5;entryDx=0;entryDy=0;exitX=1;exitY=0.5;exitDx=0;exitDy=0;" edge="1" parent="rZu1l6ArzL4Ls_2czEJb-1" source="rZu1l6ArzL4Ls_2czEJb-142" target="rZu1l6ArzL4Ls_2czEJb-145">
          <mxGeometry relative="1" as="geometry">
            <mxPoint x="230" y="291.0000000000001" as="targetPoint" />
            <mxPoint x="330" y="241" as="sourcePoint" />
            <Array as="points" />
          </mxGeometry>
        </mxCell>
        <mxCell id="rZu1l6ArzL4Ls_2czEJb-147" style="edgeStyle=none;curved=1;rounded=0;orthogonalLoop=1;jettySize=auto;html=1;fontSize=12;startSize=8;endSize=8;entryX=1;entryY=0.5;entryDx=0;entryDy=0;" edge="1" parent="rZu1l6ArzL4Ls_2czEJb-1" source="rZu1l6ArzL4Ls_2czEJb-140" target="rZu1l6ArzL4Ls_2czEJb-157">
          <mxGeometry relative="1" as="geometry">
            <mxPoint x="311.7677669529662" y="200.73223304703367" as="targetPoint" />
            <Array as="points" />
          </mxGeometry>
        </mxCell>
        <mxCell id="rZu1l6ArzL4Ls_2czEJb-148" style="edgeStyle=none;curved=0;rounded=1;orthogonalLoop=1;jettySize=auto;html=1;entryX=1;entryY=0.5;entryDx=0;entryDy=0;fontSize=12;startSize=8;endSize=8;exitX=1;exitY=0.5;exitDx=0;exitDy=0;exitPerimeter=0;" edge="1" parent="rZu1l6ArzL4Ls_2czEJb-1" source="rZu1l6ArzL4Ls_2czEJb-143" target="rZu1l6ArzL4Ls_2czEJb-140">
          <mxGeometry relative="1" as="geometry">
            <mxPoint x="735" y="230" as="sourcePoint" />
            <mxPoint x="530" y="271" as="targetPoint" />
            <Array as="points">
              <mxPoint x="750" y="261" />
              <mxPoint x="750" y="210" />
            </Array>
          </mxGeometry>
        </mxCell>
        <mxCell id="rZu1l6ArzL4Ls_2czEJb-166" style="edgeStyle=none;curved=1;rounded=0;orthogonalLoop=1;jettySize=auto;html=1;entryX=0;entryY=0.5;entryDx=0;entryDy=0;fontSize=12;startSize=8;endSize=8;exitX=0.5;exitY=0;exitDx=0;exitDy=0;" edge="1" parent="rZu1l6ArzL4Ls_2czEJb-1" source="rZu1l6ArzL4Ls_2czEJb-221" target="rZu1l6ArzL4Ls_2czEJb-165">
          <mxGeometry relative="1" as="geometry">
            <mxPoint x="340" y="325" as="sourcePoint" />
          </mxGeometry>
        </mxCell>
        <mxCell id="rZu1l6ArzL4Ls_2czEJb-168" style="edgeStyle=none;curved=1;rounded=0;orthogonalLoop=1;jettySize=auto;html=1;entryX=0;entryY=0;entryDx=0;entryDy=20;entryPerimeter=0;fontSize=12;startSize=8;endSize=8;" edge="1" parent="rZu1l6ArzL4Ls_2czEJb-1" source="rZu1l6ArzL4Ls_2czEJb-165" target="rZu1l6ArzL4Ls_2czEJb-167">
          <mxGeometry relative="1" as="geometry" />
        </mxCell>
        <mxCell id="rZu1l6ArzL4Ls_2czEJb-171" style="edgeStyle=none;curved=1;rounded=0;orthogonalLoop=1;jettySize=auto;html=1;fontSize=12;startSize=8;endSize=8;entryX=0;entryY=0.5;entryDx=0;entryDy=0;exitX=1;exitY=0.5;exitDx=0;exitDy=0;" edge="1" parent="rZu1l6ArzL4Ls_2czEJb-1" source="rZu1l6ArzL4Ls_2czEJb-159" target="rZu1l6ArzL4Ls_2czEJb-169">
          <mxGeometry relative="1" as="geometry">
            <mxPoint x="370" y="371" as="targetPoint" />
          </mxGeometry>
        </mxCell>
        <mxCell id="rZu1l6ArzL4Ls_2czEJb-172" style="edgeStyle=none;curved=1;rounded=0;orthogonalLoop=1;jettySize=auto;html=1;entryX=0;entryY=0;entryDx=0;entryDy=20;entryPerimeter=0;fontSize=12;startSize=8;endSize=8;" edge="1" parent="rZu1l6ArzL4Ls_2czEJb-1" source="rZu1l6ArzL4Ls_2czEJb-169" target="rZu1l6ArzL4Ls_2czEJb-170">
          <mxGeometry relative="1" as="geometry" />
        </mxCell>
        <mxCell id="rZu1l6ArzL4Ls_2czEJb-197" style="edgeStyle=none;curved=1;rounded=0;orthogonalLoop=1;jettySize=auto;html=1;entryX=0;entryY=0;entryDx=0;entryDy=20;entryPerimeter=0;fontSize=12;startSize=8;endSize=8;" edge="1" parent="rZu1l6ArzL4Ls_2czEJb-1" source="rZu1l6ArzL4Ls_2czEJb-195" target="rZu1l6ArzL4Ls_2czEJb-196">
          <mxGeometry relative="1" as="geometry" />
        </mxCell>
        <mxCell id="rZu1l6ArzL4Ls_2czEJb-198" style="edgeStyle=none;curved=0;rounded=1;orthogonalLoop=1;jettySize=auto;html=1;entryX=1;entryY=0.5;entryDx=0;entryDy=0;fontSize=12;startSize=8;endSize=8;exitX=1;exitY=0.5;exitDx=0;exitDy=0;exitPerimeter=0;" edge="1" parent="rZu1l6ArzL4Ls_2czEJb-1" source="rZu1l6ArzL4Ls_2czEJb-196" target="rZu1l6ArzL4Ls_2czEJb-199">
          <mxGeometry relative="1" as="geometry">
            <Array as="points">
              <mxPoint x="735" y="495" />
            </Array>
          </mxGeometry>
        </mxCell>
        <mxCell id="rZu1l6ArzL4Ls_2czEJb-201" style="edgeStyle=none;curved=1;rounded=0;orthogonalLoop=1;jettySize=auto;html=1;entryX=1;entryY=0.5;entryDx=0;entryDy=0;fontSize=12;startSize=8;endSize=8;" edge="1" parent="rZu1l6ArzL4Ls_2czEJb-1" source="rZu1l6ArzL4Ls_2czEJb-199" target="rZu1l6ArzL4Ls_2czEJb-193">
          <mxGeometry relative="1" as="geometry" />
        </mxCell>
        <mxCell id="rZu1l6ArzL4Ls_2czEJb-207" style="edgeStyle=none;curved=1;rounded=0;orthogonalLoop=1;jettySize=auto;html=1;entryX=0;entryY=0;entryDx=0;entryDy=20;entryPerimeter=0;fontSize=12;startSize=8;endSize=8;" edge="1" parent="rZu1l6ArzL4Ls_2czEJb-1" source="rZu1l6ArzL4Ls_2czEJb-205" target="rZu1l6ArzL4Ls_2czEJb-206">
          <mxGeometry relative="1" as="geometry" />
        </mxCell>
        <mxCell id="rZu1l6ArzL4Ls_2czEJb-208" style="edgeStyle=none;curved=1;rounded=0;orthogonalLoop=1;jettySize=auto;html=1;entryX=0;entryY=0.75;entryDx=0;entryDy=0;fontSize=12;startSize=8;endSize=8;fillColor=#d5e8d4;strokeColor=#82b366;" edge="1" parent="rZu1l6ArzL4Ls_2czEJb-1" source="rZu1l6ArzL4Ls_2czEJb-204" target="rZu1l6ArzL4Ls_2czEJb-205">
          <mxGeometry relative="1" as="geometry" />
        </mxCell>
        <mxCell id="rZu1l6ArzL4Ls_2czEJb-209" value="yes" style="edgeLabel;html=1;align=center;verticalAlign=middle;resizable=0;points=[];fontSize=12;" vertex="1" connectable="0" parent="rZu1l6ArzL4Ls_2czEJb-208">
          <mxGeometry x="-0.6104" y="2" relative="1" as="geometry">
            <mxPoint x="-17" y="-7" as="offset" />
          </mxGeometry>
        </mxCell>
        <mxCell id="rZu1l6ArzL4Ls_2czEJb-214" style="edgeStyle=none;curved=0;rounded=1;orthogonalLoop=1;jettySize=auto;html=1;entryX=0;entryY=0.25;entryDx=0;entryDy=0;fontSize=12;startSize=8;endSize=8;exitX=0.75;exitY=0;exitDx=0;exitDy=0;" edge="1" parent="rZu1l6ArzL4Ls_2czEJb-1" source="rZu1l6ArzL4Ls_2czEJb-221" target="rZu1l6ArzL4Ls_2czEJb-205">
          <mxGeometry relative="1" as="geometry">
            <mxPoint x="325" y="340" as="sourcePoint" />
            <mxPoint x="90" y="675.5" as="targetPoint" />
            <Array as="points">
              <mxPoint x="330" y="346" />
              <mxPoint x="330" y="550" />
            </Array>
          </mxGeometry>
        </mxCell>
      </root>
    </mxGraphModel>
  </diagram>
</mxfile>
